# xmcd
#
# Track frame offsets:
#	150
#	17201
#	33037
#	40802
#	58537
#	75616
#	90623
#	105083
#	121400
#	138382
#	156087
#	176551
#
# Disc length: 2493 seconds
#
# Revision: 0
# Processed by: cddbd v1.5.2PL0 Copyright (c) Steve Scherf et al.
# Submitted via: EZCDAudioConverter 1.3.4.1
#
DISCID=8809bb0c
DTITLE=Kate and Anna McGarrigle - Tell My Sister 2/3
DYEAR=1900
DGENRE=
TTITLE0=Dancer With Bruised Knees
TTITLE1=Southern Boys
TTITLE2=No Biscuit Blues
TTITLE3=First Born
TTITLE4=Blanche Comme La Neige
TTITLE5=Perrine Était Servante
TTITLE6=Be My Baby
TTITLE7=Walking Song
TTITLE8=Naufragée Du Tendre (Shipwrecked)
TTITLE9=Hommage À Grungie
TTITLE10=Kitty Come Home
TTITLE11=Come A Long Way
EXTD=
EXTT0=
EXTT1=
EXTT2=
EXTT3=
EXTT4=
EXTT5=
EXTT6=
EXTT7=
EXTT8=
EXTT9=
EXTT10=
EXTT11=
PLAYORDER=
